<svg xmlns="http://www.w3.org/2000/svg" width="128" height="128" viewBox="0 0 128 128">
  <title>GO GREEN</title>
  <g>
    <path d="M70.239,66.845a5.263,5.263,0,0,1,5.237,5.779,5.414,5.414,0,0,1-5.463,4.745h3.466l8.985-8.986a11.168,11.168,0,0,1,15.792,0L79.814,86.826a5.839,5.839,0,0,1-4.129,1.71h-14.4a3.094,3.094,0,0,0-2.185.905l-5.683,5.684L38.084,79.747,49.722,68.109a4.314,4.314,0,0,1,3.051-1.264Z" fill="#ffdd7d"/>
    <rect x="27.964" y="85.841" width="28.333" height="9.675" transform="translate(76.459 -3.232) rotate(45)" fill="#315693"/>
    <g>
      <path d="M61.844,25.061A21.078,21.078,0,0,0,51.407,46.839L61.844,36.4Z" fill="#c4e59e"/>
      <path d="M53.882,49.313A21.036,21.036,0,0,0,72.2,43.431c.2-.2.375-.4.562-.6H60.366Z" fill="#c4e59e"/>
      <path d="M65.344,32.9,75.606,22.64a21.17,21.17,0,0,0-10.386.9,1.739,1.739,0,0,1,.124.639Z" fill="#c4e59e"/>
      <path d="M64.831,38.364l-.965.965H74.227a1.737,1.737,0,0,1,.976.3A21.083,21.083,0,0,0,78.08,25.115L64.832,38.363Z" fill="#c4e59e"/>
      <path d="M63.866,39.329l.965-.965h0L78.08,25.115a20.9,20.9,0,0,0-.428-2.047c-.675-.18-1.359-.316-2.046-.428L65.344,32.9V24.181a1.739,1.739,0,0,0-.124-.639,20.918,20.918,0,0,0-3.376,1.519V36.4L51.407,46.839,48.06,50.185a1.75,1.75,0,1,0,2.475,2.475l3.347-3.347,6.484-6.484H72.76a21.066,21.066,0,0,0,2.443-3.2,1.737,1.737,0,0,0-.976-.3Z" fill="#fff"/>
    </g>
  </g>
</svg>
